<?xml version="1.0" encoding="utf-8"?>
<!-- Generator: Adobe Illustrator 23.0.5, SVG Export Plug-In . SVG Version: 6.00 Build 0)  -->
<svg version="1.1" id="Слой_1" xmlns="http://www.w3.org/2000/svg" xmlns:xlink="http://www.w3.org/1999/xlink" x="0px" y="0px"
	 viewBox="0 0 32 32" style="enable-background:new 0 0 32 32;" xml:space="preserve">
<style type="text/css">
	.st0{fill:#DC3545;}
	.st1{fill:none;}
</style>
<rect class="st0" width="32" height="32"/>
<rect x="21.2" y="12.7" class="st1" width="3.5" height="0.6"/>
<g>
	<path d="M12.5,25c-0.5,0.8-1,1.5-2,2.5c-2.2,2.2-4.1,2-7-1c-3-3-3.2-4.8-1-7c1-1,1.5-1.4,2.3-1.9l0.7,0.9c-0.7,0.6-1.2,1-2.1,1.9
		c-1.5,1.5-1.2,2.8,1.1,5.1c2.4,2.4,3.6,2.6,5.1,1.1c1-1,1.5-1.6,2-2.3L12.5,25z"/>
	<path d="M16.1,16.2c2.1,2.1,2.2,3.6,0.3,5.4c-1.9,1.9-3.3,1.8-5.4-0.3c-2.1-2.1-2.2-3.6-0.3-5.4C12.5,14.1,14,14.2,16.1,16.2z
		 M11.9,20.4c1.6,1.6,2.4,1.7,3.6,0.5c1.2-1.2,1.1-2.1-0.5-3.6c-1.6-1.6-2.5-1.7-3.6-0.5C10.2,17.9,10.3,18.8,11.9,20.4z"/>
	<path d="M24.9,12.8l-0.7,0.7l-0.9-0.7c-0.1,1.1-0.4,2.2-1.2,3.1c-1.4,1.4-2.9,0.9-4.8-1c-2.1-2.1-2.2-3.5-0.8-4.9
		c0.7-0.7,1.5-1.2,2.4-1.4c-0.4-0.3-0.7-0.7-1.1-1l-1.7-1.7l1-1L24.9,12.8z M19.5,9.3c-0.8,0.5-1.4,0.8-2,1.4
		c-0.9,0.9-0.9,1.7,0.7,3.3c1.6,1.6,2.4,1.7,3.3,0.8c0.6-0.6,0.8-1.2,1-2.5L19.5,9.3z"/>
	<path d="M25.2,8.1c1.4,1.2,2.2,1,3.3-0.1c0.6-0.6,1.3-1.4,1.8-2L31,6.4c-0.3,0.7-1.2,1.8-1.8,2.4c-1.9,1.9-3.4,1.8-5.5-0.3
		c-2.1-2.1-2.1-3.6-0.3-5.4c1.6-1.6,3-1.7,4.1-0.6c1,1,1.2,1.9,0.2,2.8L25.2,8.1z M26.7,5c0.5-0.5,0.2-1-0.2-1.4
		C25.8,2.9,25.2,3,24.2,4c-1.1,1.1-1.1,1.9,0.2,3.3L26.7,5z"/>
</g>
</svg>
