<?xml version="1.0" encoding="utf-8"?>
<!-- Generator: Adobe Illustrator 23.0.5, SVG Export Plug-In . SVG Version: 6.00 Build 0)  -->
<svg version="1.1" id="Слой_1" xmlns="http://www.w3.org/2000/svg" xmlns:xlink="http://www.w3.org/1999/xlink" x="0px" y="0px"
	 viewBox="0 0 32 32" style="enable-background:new 0 0 32 32;" xml:space="preserve">
<style type="text/css">
	.st0{fill:#DBBD4C;}
	.st1{fill:#E6C88C;}
</style>
<g>
	<circle class="st0" cx="16" cy="16" r="15"/>
	<g>
		<path class="st1" d="M16,2c7.72,0,14,6.28,14,14s-6.28,14-14,14S2,23.72,2,16S8.28,2,16,2 M16,0C7.16,0,0,7.16,0,16s7.16,16,16,16
			s16-7.16,16-16S24.84,0,16,0L16,0z"/>
	</g>
</g>
<path class="st1" d="M16,25L16,25c-1.1,0-2-0.9-2-2V9c0-1.1,0.9-2,2-2h0c1.1,0,2,0.9,2,2v14C18,24.1,17.1,25,16,25z"/>
</svg>
