<?xml version="1.0" encoding="utf-8"?>
<!-- Generator: Adobe Illustrator 23.0.5, SVG Export Plug-In . SVG Version: 6.00 Build 0)  -->
<svg version="1.1" id="Слой_1" xmlns="http://www.w3.org/2000/svg" xmlns:xlink="http://www.w3.org/1999/xlink" x="0px" y="0px"
	 viewBox="0 0 32 32" style="enable-background:new 0 0 32 32;" xml:space="preserve">
<style type="text/css">
	.st0{fill:#02BE7A;}
	.st1{fill:none;}
</style>
<rect class="st0" width="32" height="32"/>
<rect x="21.2" y="12.7" class="st1" width="3.5" height="0.6"/>
<g>
	<path d="M26.2,3.1c0.8,0,1.2,0.4,1.2,1.2l1,21.6h-2.9L24.6,5.5h-0.7l-5.1,16.9c-0.2,0.6-0.6,1-1.3,1h-2.6c-0.7,0-1.1-0.4-1.3-1
		L8.5,5.5H7.8L7,26H4.1L5,4.4c0-0.8,0.5-1.2,1.2-1.2h3.3c0.7,0,1,0.3,1.2,1l4.3,14c0.3,1,0.6,2,0.9,3.1h0.6c0.3-1.1,0.5-2.1,0.9-3.1
		l4.3-13.9c0.2-0.7,0.6-1,1.3-1H26.2z"/>
</g>
</svg>
