<svg id="Capa_1" enable-background="new 0 0 511.98 511.98" height="512" viewBox="0 0 511.98 511.98" width="512" style="fill: #fff;" xmlns="http://www.w3.org/2000/svg"><g id="XMLID_2425_"><path id="XMLID_2631_" d="m486.05 431.028c-7.326-5.914-11.517-15.206-11.209-24.857.112-3.528.169-7.12.169-10.674 0-51.409-11.457-100.684-34.053-146.456-19.474-39.449-47.167-75.205-80.55-104.143 6.102-5.83 9.915-14.038 9.915-23.124 0-16.976-13.29-30.901-30.011-31.932l34.964-66.032c2.054-3.88 1.338-8.646-1.767-11.751-16.08-16.078-42.242-16.079-58.322 0-4.012 4.011-9.345 6.221-15.018 6.221-5.674 0-11.007-2.209-15.019-6.221-16.08-16.078-42.242-16.079-58.322 0-4.012 4.011-9.345 6.221-15.019 6.221-5.673 0-11.006-2.209-15.018-6.221-16.08-16.078-42.242-16.078-58.322 0-3.104 3.104-3.82 7.871-1.767 11.751l34.965 66.032c-16.721 1.031-30.012 14.955-30.012 31.932 0 9.086 3.813 17.294 9.916 23.125-33.383 28.939-61.076 64.694-80.551 104.143-22.596 45.772-34.053 95.047-34.053 146.456 0 3.535.058 7.126.17 10.674.307 9.652-3.884 18.944-11.209 24.857-11.454 9.245-17.756 23.55-16.858 38.268 1.396 22.887 19.707 41.2 42.594 42.598 12.465.757 24.39-3.448 33.569-11.852 6.984-6.395 17.031-8.81 26.871-6.467 46.878 11.165 95.287 16.826 143.884 16.826s97.006-5.661 143.884-16.826c9.844-2.343 19.888.073 26.871 6.467 8.474 7.757 20.716 11.896 32.134 11.896.952 0-.96.059 0 0 22.887-1.398 42.634-19.755 44.03-42.643.899-14.719-5.404-29.024-16.856-38.268zm-303.4-404.827c7.789 7.789 18.145 12.079 29.16 12.079s21.372-4.29 29.161-12.079c8.281-8.281 21.758-8.28 30.037 0 7.789 7.789 18.146 12.079 29.161 12.079s21.371-4.29 29.16-12.079c6.542-6.543 16.326-7.917 24.23-4.121l-35.844 67.693h-123.451l-35.845-67.693c7.906-3.795 17.691-2.42 24.231 4.121zm-8.993 83.573h164.666c6.617 0 12 5.383 12 12s-5.383 12-12 12h-164.666c-6.617 0-12-5.383-12-12s5.383-12 12-12zm309.289 358.303c-.769 12.605-11.245 23.083-23.851 23.853-7.011.427-13.7-1.931-18.845-6.641-11.883-10.878-28.708-15.055-45.012-11.171-45.361 10.804-92.211 16.282-139.249 16.282s-93.888-5.478-139.249-16.282c-16.307-3.883-33.129.292-45.012 11.171-5.145 4.71-11.843 7.068-18.845 6.641-12.604-.77-23.081-11.247-23.85-23.853-.512-8.392 2.935-16.223 9.456-21.486 12.176-9.827 19.144-25.175 18.639-41.056-.106-3.337-.16-6.715-.16-10.039 0-94.364 41.938-182.279 115.181-241.761.5.023 167.179.023 167.678 0 73.243 59.481 115.181 147.396 115.181 241.761 0 3.344-.054 6.721-.159 10.038-.506 15.88 6.461 31.229 18.638 41.057 6.523 5.264 9.97 13.096 9.459 21.486z"/><path id="XMLID_2648_" d="m255.99 261.192c14.641 0 26.552 10.396 26.552 23.173 0 5.523 4.478 10 10 10s10-4.477 10-10c0-20.622-15.674-37.903-36.552-42.159v-4.813c0-5.523-4.478-10-10-10s-10 4.477-10 10v4.813c-20.877 4.256-36.552 21.537-36.552 42.159 0 23.806 20.883 43.173 46.552 43.173 14.641 0 26.552 10.396 26.552 23.173s-11.911 23.173-26.552 23.173-26.552-10.396-26.552-23.173c0-5.523-4.478-10-10-10s-10 4.477-10 10c0 20.622 15.674 37.903 36.552 42.159v6.083c0 5.523 4.478 10 10 10s10-4.477 10-10v-6.083c20.877-4.256 36.552-21.537 36.552-42.159 0-23.806-20.883-43.173-46.552-43.173-14.641 0-26.552-10.396-26.552-23.173s11.911-23.173 26.552-23.173z"/></g></svg>