<?xml version="1.0" encoding="utf-8"?>
<!-- Generator: Adobe Illustrator 23.0.5, SVG Export Plug-In . SVG Version: 6.00 Build 0)  -->
<svg version="1.1" id="Слой_1" xmlns="http://www.w3.org/2000/svg" xmlns:xlink="http://www.w3.org/1999/xlink" x="0px" y="0px"
	 viewBox="0 0 32 32" style="enable-background:new 0 0 32 32;" xml:space="preserve">
<style type="text/css">
	.st0{fill:#02BE7A;}
	.st1{fill:none;stroke:#02BE7A;stroke-miterlimit:10;}
	.st2{fill:none;stroke:#02BE7A;stroke-width:0.75;stroke-miterlimit:10;}
</style>
<g>
	<path class="st0" d="M16.5,5C22.84,5,28,10.16,28,16.5S22.84,28,16.5,28S5,22.84,5,16.5S10.16,5,16.5,5 M16.5,3
		C9.04,3,3,9.04,3,16.5S9.04,30,16.5,30S30,23.96,30,16.5S23.96,3,16.5,3L16.5,3z"/>
</g>
<g>
	<line class="st1" x1="16.5" y1="16.5" x2="14.5" y2="8.5"/>
</g>
<g>
	<line class="st2" x1="23.5" y1="16.5" x2="16.5" y2="16.5"/>
</g>
<g>
	<g>
		<path class="st0" d="M16.49,17.97c1.93,0,1.93-3,0-3C14.56,14.97,14.56,17.97,16.49,17.97L16.49,17.97z"/>
	</g>
</g>
</svg>
