<?xml version="1.0" encoding="utf-8"?>
<!-- Generator: Adobe Illustrator 23.0.5, SVG Export Plug-In . SVG Version: 6.00 Build 0)  -->
<svg version="1.1" id="Слой_1" xmlns="http://www.w3.org/2000/svg" xmlns:xlink="http://www.w3.org/1999/xlink" x="0px" y="0px"
	 viewBox="0 0 32 32" style="enable-background:new 0 0 32 32;" xml:space="preserve">
<style type="text/css">
	.st0{fill:#FFFFFF;}
	.st1{fill:#02BE7A;}
</style>
<g>
	<path class="st0" d="M3.37,28.5c-0.48,0-0.84-0.15-0.99-0.4c-0.15-0.26-0.11-0.64,0.11-1.06L15.39,3c0.22-0.41,0.49-0.65,0.74-0.65
		S16.65,2.59,16.88,3l12.9,24.03c0.22,0.42,0.26,0.81,0.11,1.06c-0.15,0.26-0.51,0.4-0.99,0.4H3.37z"/>
	<path d="M16.13,2.86c0.05,0.03,0.17,0.13,0.3,0.38l5.27,9.81l1.18,2.2l1.18,2.2l5.27,9.81c0.17,0.32,0.16,0.51,0.12,0.57
		C29.42,27.9,29.26,28,28.9,28H18.63h-5H3.37C3,28,2.84,27.9,2.81,27.84s-0.05-0.25,0.12-0.57l5.27-9.81l2.36-4.41l5.27-9.81
		C15.96,3,16.08,2.89,16.13,2.86 M16.13,1.86c-0.43,0-0.86,0.3-1.18,0.91l-5.27,9.81c-0.65,1.21-1.71,3.19-2.36,4.41L2.05,26.8
		C1.4,28.01,1.99,29,3.37,29h10.26c1.38,0,3.63,0,5,0H28.9c1.38,0,1.97-0.99,1.32-2.2l-5.27-9.81c-0.65-1.21-1.71-3.19-2.36-4.41
		l-5.27-9.81C16.99,2.16,16.56,1.86,16.13,1.86L16.13,1.86z"/>
</g>
<g>
	<path class="st1" d="M18.7,25c-1.38,0-3.63,0-5,0h-3.2c-1.38,0-1.97-0.99-1.32-2.2l1.73-3.23c0.65-1.21,1.71-3.19,2.36-4.41
		l1.73-3.23c0.65-1.21,1.71-1.21,2.36,0l1.73,3.23c0.65,1.21,1.71,3.19,2.36,4.41l1.73,3.23c0.65,1.21,0.06,2.2-1.32,2.2H18.7z"/>
</g>
</svg>
