<?xml version="1.0" encoding="utf-8"?>
<svg id="Layer_1" enable-background="new 0 0 512 512" height="512" viewBox="0 0 512 512" width="512" style="fill: #ee7e21;" xmlns="http://www.w3.org/2000/svg" xmlns:bx="https://boxy-svg.com">
  <defs>
    <bx:grid x="0" y="0" width="52.624" height="157.079"/>
  </defs>
  <g>
    <path d="m256 512c-68.38 0-132.668-26.628-181.02-74.98s-74.98-112.64-74.98-181.02 26.629-132.667 74.98-181.02 112.64-74.98 181.02-74.98 132.668 26.628 181.02 74.98 74.98 112.64 74.98 181.02-26.629 132.667-74.98 181.02-112.64 74.98-181.02 74.98zm0-480c-123.514 0-224 100.486-224 224s100.486 224 224 224 224-100.486 224-224-100.486-224-224-224z"/>
    <g transform="matrix(0.554008, 0, 0, 0.554008, 123.005699, 115.014503)" style="">
      <g>
        <path d="M 493.647 120.908 C 487.599 115.745 479.064 114.657 471.911 118.139 L 362.467 171.419 L 259.775 53.017 C 255.977 48.637 250.464 46.121 244.666 46.121 C 238.868 46.121 233.356 48.637 229.557 53.017 L 126.865 171.418 L 17.421 118.138 C 10.268 114.657 1.734 115.744 -4.316 120.907 C -10.366 126.07 -12.782 134.328 -10.469 141.938 L 65.531 391.938 C 68.092 400.363 75.861 406.121 84.666 406.121 L 404.666 406.121 C 413.47 406.121 421.24 400.363 423.8 391.939 L 499.8 141.939 C 502.114 134.329 499.698 126.071 493.647 120.908 Z M 389.841 366.121 L 99.489 366.121 L 41.138 174.173 L 123.16 214.104 C 131.304 218.068 141.09 216.066 147.023 209.226 L 244.666 96.646 L 342.31 209.226 C 348.242 216.067 358.031 218.067 366.172 214.104 L 448.194 174.173 L 389.841 366.121 Z"/>
      </g>
    </g>
    <g transform="matrix(0.554008, 0, 0, 0.554008, 113.873032, 114.44371)" style=""/>
    <g transform="matrix(0.554008, 0, 0, 0.554008, 113.873032, 114.44371)" style=""/>
    <g transform="matrix(0.554008, 0, 0, 0.554008, 113.873032, 114.44371)" style=""/>
    <g transform="matrix(0.554008, 0, 0, 0.554008, 113.873032, 114.44371)" style=""/>
    <g transform="matrix(0.554008, 0, 0, 0.554008, 113.873032, 114.44371)" style=""/>
    <g transform="matrix(0.554008, 0, 0, 0.554008, 113.873032, 114.44371)" style=""/>
    <g transform="matrix(0.554008, 0, 0, 0.554008, 113.873032, 114.44371)" style=""/>
    <g transform="matrix(0.554008, 0, 0, 0.554008, 113.873032, 114.44371)" style=""/>
    <g transform="matrix(0.554008, 0, 0, 0.554008, 113.873032, 114.44371)" style=""/>
    <g transform="matrix(0.554008, 0, 0, 0.554008, 113.873032, 114.44371)" style=""/>
    <g transform="matrix(0.554008, 0, 0, 0.554008, 113.873032, 114.44371)" style=""/>
    <g transform="matrix(0.554008, 0, 0, 0.554008, 113.873032, 114.44371)" style=""/>
    <g transform="matrix(0.554008, 0, 0, 0.554008, 113.873032, 114.44371)" style=""/>
    <g transform="matrix(0.554008, 0, 0, 0.554008, 113.873032, 114.44371)" style=""/>
    <g transform="matrix(0.554008, 0, 0, 0.554008, 113.873032, 114.44371)" style=""/>
  </g>
</svg>